<svg width="1440" height="900" viewBox="0 0 1440 900" fill="none" xmlns="http://www.w3.org/2000/svg">
  <defs>
    <linearGradient id="g" x1="0" y1="0" x2="1440" y2="900" gradientUnits="userSpaceOnUse">
      <stop stop-color="#9CA3AF" stop-opacity="0.18"/>
      <stop offset="1" stop-color="#FDE68A" stop-opacity="0.10"/>
    </linearGradient>
  </defs>
  <rect width="1440" height="900" fill="transparent"/>
  <!-- star dots -->
  <g fill="#E5E7EB" fill-opacity="0.10">
    <circle cx="180" cy="140" r="2"/>
    <circle cx="260" cy="220" r="1.5"/>
    <circle cx="360" cy="180" r="1.2"/>
    <circle cx="520" cy="260" r="1.8"/>
    <circle cx="640" cy="160" r="1.2"/>
    <circle cx="780" cy="220" r="1.6"/>
    <circle cx="920" cy="140" r="1.3"/>
    <circle cx="1040" cy="260" r="2"/>
    <circle cx="1180" cy="180" r="1.4"/>
    <circle cx="1280" cy="260" r="1.2"/>
    <circle cx="220" cy="520" r="1.4"/>
    <circle cx="340" cy="620" r="1.2"/>
    <circle cx="520" cy="560" r="1.8"/>
    <circle cx="700" cy="640" r="1.2"/>
    <circle cx="900" cy="560" r="1.6"/>
    <circle cx="1080" cy="640" r="1.2"/>
    <circle cx="1240" cy="560" r="1.8"/>
  </g>
  <!-- constellation lines -->
  <g stroke="url(#g)" stroke-width="1">
    <path d="M180 140 L260 220 L360 180 L520 260 L640 160 L780 220 L920 140 L1040 260 L1180 180 L1280 260" />
    <path d="M220 520 L340 620 L520 560 L700 640 L900 560 L1080 640 L1240 560" />
    <path d="M360 180 L340 620" />
    <path d="M780 220 L700 640" />
    <path d="M1040 260 L1080 640" />
  </g>
</svg>




